<svg width="300" height="300" viewBox="0 0 300 300" fill="none" xmlns="http://www.w3.org/2000/svg">
<path d="M177.145 299.919C153.594 299.916 130.305 299.745 107.021 299.999C98.9437 300.087 90.674 293.639 89.2825 284.649C89.0415 283.092 88.9755 281.494 88.9742 279.915C88.9567 258.611 88.9663 237.308 88.966 216.004C88.9659 211.232 88.8163 210.995 84.0944 211.099C72.8889 211.347 61.7504 210.822 51.1292 206.899C23.8358 196.818 6.13509 177.732 1.14965 148.908C-4.64669 115.396 11.9102 85.1616 40.9977 70.3829C42.2161 69.7638 43.678 69.4859 44.5057 68.2147C44.3478 66.8901 43.2845 66.2785 42.5063 65.4966C31.1521 54.0895 19.721 42.7587 8.4288 31.2905C-1.69872 21.0052 2.82532 4.2909 16.6719 0.370202C17.8031 0.0498785 18.9156 0.00164545 20.0539 0.00161323C77.964 1.42706e-06 135.874 -0.00279248 193.784 0.00734056C202.107 0.00879546 209.944 7.33893 210.544 15.6586C211.305 26.2075 210.776 36.7718 210.848 47.3285C210.933 59.8284 210.844 72.3294 210.846 84.8299C210.846 88.6899 210.988 88.8823 214.86 88.8133C225.246 88.6283 235.645 88.751 245.622 91.9652C273.387 100.909 291.875 119.219 298.144 147.96C303.336 171.761 297.593 193.495 281.434 212.115C274.586 220.006 266.344 226.022 256.93 230.472C256.454 230.696 255.986 230.941 255.534 231.209C255.403 231.286 255.339 231.478 255.167 231.731C256.525 233.864 258.527 235.463 260.3 237.251C270.644 247.677 281.09 258.002 291.375 268.487C298.421 275.67 298.88 285.875 292.516 293.619C289.198 297.658 284.808 299.912 279.432 299.912C245.424 299.909 211.416 299.916 177.145 299.919ZM56.8261 99.1669C39.2658 107.753 30.0825 125.467 33.3678 144.419C36.5618 162.842 54.3352 177.997 73.0481 178.038C106.797 178.111 140.547 178.07 174.296 178.07C177.778 178.069 178.067 177.797 178.074 174.322C178.093 165.957 178.037 157.593 178.081 149.229C178.109 143.975 181.369 140.263 186.343 140.1C191.786 139.922 197.243 139.947 202.687 140.118C207.089 140.256 210.047 143.16 210.587 147.495C210.771 148.974 210.867 150.475 210.87 151.966C210.895 164.908 210.888 177.851 210.892 190.794C210.896 203.253 203.1 211.064 190.654 211.063C177.646 211.062 164.639 211.043 151.631 211.065C149.442 211.068 147.254 211.036 145.064 211.391C131.88 213.532 121.235 226.056 121.822 240.444C122.41 254.843 134.661 267.288 149.094 267.319C177.922 267.381 206.749 267.338 235.577 267.347C237.188 267.347 238.838 267.443 239.621 265.617C240.455 263.673 239.173 262.499 237.965 261.291C229.57 252.893 221.104 244.562 212.825 236.05C207.088 230.153 206.077 223.13 209.003 215.555C211.55 208.959 218.301 204.509 225.831 204.502C233.314 204.494 240.256 202.596 246.65 198.808C261.307 190.124 268.986 174.508 266.971 158.241C264.228 136.087 244.724 121.606 224.884 121.746C191.84 121.979 158.792 121.814 125.746 121.821C122.131 121.822 121.848 122.095 121.841 125.74C121.825 134.104 121.927 142.469 121.801 150.832C121.717 156.422 118.149 159.785 112.576 159.838C108.182 159.879 103.787 159.854 99.3928 159.845C92.11 159.829 88.9664 156.681 88.9591 149.358C88.9459 136.064 88.9566 122.769 88.9508 109.474C88.9452 96.4963 96.6279 88.8026 109.618 88.7998C123.065 88.7968 136.517 88.5733 149.958 88.8673C164.863 89.1933 181.282 75.6138 177.72 54.6077C175.454 41.249 164.603 32.5644 151.118 32.5535C127.563 32.5344 104.009 32.5541 80.4549 32.5588C74.7421 32.56 69.0291 32.5941 63.3166 32.553C61.6116 32.5407 60.344 33.0996 59.9091 34.8053C59.489 36.4536 60.7772 37.3838 61.7471 38.3582C70.062 46.7122 78.4345 55.009 86.7169 63.3951C92.5553 69.3066 94.1131 76.3395 90.9633 84.0002C87.8753 91.5107 81.7691 95.1641 73.79 95.3702C67.981 95.5203 62.5023 96.7744 56.8261 99.1669Z" fill="#D4FF00"/>
</svg>
