<svg width="330" height="167" viewBox="0 0 330 167" fill="none" xmlns="http://www.w3.org/2000/svg">
<path d="M192.273 42.2727L188.864 47.3864M137.727 42.2727C125.288 25.7134 105.487 15 83.1818 15C45.5261 15 15 45.5261 15 83.1818C15 120.837 45.5261 151.364 83.1818 151.364C105.488 151.364 125.293 140.651 137.733 124.091L142.278 117.273" stroke="#C7F441" stroke-width="30" stroke-linecap="round" stroke-linejoin="round"/>
<path d="M137.727 42.2727L192.267 124.091C204.706 140.651 224.512 151.364 246.818 151.364C284.474 151.364 315 120.837 315 83.1818C315 45.5261 284.474 15 246.818 15C224.512 15 204.706 25.712 192.267 42.2727" stroke="#C7F441" stroke-width="30" stroke-linecap="round" stroke-linejoin="round"/>
</svg>
